<svg xmlns="http://www.w3.org/2000/svg" width="512" height="512" viewBox="0 0 512 512">
<defs>

<linearGradient id="bg1" x1="0" y1="0" x2="0" y2="1"><stop offset="0" stop-color="#0c1730"/><stop offset="1" stop-color="#173a6b"/></linearGradient>
<linearGradient id="body1" x1="0" y1="0" x2="0" y2="1"><stop offset="0" stop-color="#ffffff"/><stop offset="1" stop-color="#c9d6e8"/></linearGradient>
<linearGradient id="visor1" x1="0" y1="0" x2="0" y2="1"><stop offset="0" stop-color="#0b1426"/><stop offset="1" stop-color="#1f3358"/></linearGradient>
<radialGradient id="eye1" cx="0.5" cy="0.4" r="0.6"><stop offset="0" stop-color="#d7faff"/><stop offset="0.5" stop-color="#36e2ff"/><stop offset="1" stop-color="#159fdd"/></radialGradient>
<filter id="glow" x="-60%" y="-60%" width="220%" height="220%"><feGaussianBlur stdDeviation="7" result="b"/><feMerge><feMergeNode in="b"/><feMergeNode in="SourceGraphic"/></feMerge></filter>
<clipPath id="rc"><rect x="16" y="16" width="480" height="480" rx="112"/></clipPath>
</defs>
<g clip-path="url(#rc)">
<rect x="16" y="16" width="480" height="480" rx="112" fill="url(#bg1)"/>

<ellipse cx="256" cy="432" rx="92" ry="15" fill="#000" opacity="0.30" filter="url(#glow)"/>
<path d="M256 92 C188 92 148 168 148 248 C148 332 196 396 256 396 C316 396 364 332 364 248 C364 168 324 92 256 92 Z" fill="url(#body1)"/>
<ellipse cx="210" cy="168" rx="24" ry="40" fill="#ffffff" opacity="0.55"/>
<g transform="rotate(-8 256 232)">
  <rect x="166" y="196" width="180" height="76" rx="38" fill="url(#visor1)"/>
  <ellipse cx="224" cy="236" rx="15" ry="19" fill="url(#eye1)" filter="url(#glow)"/>
  <ellipse cx="290" cy="230" rx="15" ry="19" fill="url(#eye1)" filter="url(#glow)"/>
</g><text x="256" y="478" text-anchor="middle" font-family="DejaVu Sans, Arial, sans-serif" font-size="56" font-weight="700" letter-spacing="5" fill="#eaf4ff" opacity="0.92">jac</text>
</g>
</svg>